<svg xmlns="http://www.w3.org/2000/svg" shape-rendering="geometricPrecision" text-rendering="geometricPrecision" image-rendering="optimizeQuality" fill-rule="evenodd" clip-rule="evenodd" viewBox="0 0 512 477.127"><path fill-rule="nonzero" d="M399.225 325.177c31.555 8.49 63.699 19.468 83.387 41.164C504.018 389.925 512 411.81 512 470.155a6.972 6.972 0 01-6.973 6.972H6.972A6.978 6.978 0 010 470.155c0-56.806 7.572-78.732 27.739-102.475 21.796-25.682 51.673-35.181 80.471-41.504-21.297-4.036-38.757-13.186-43.102-25.422 43.111-3.506 58.964-48.296 64.278-94.744 8.091-71.111-3.137-162.599 82.448-197.19 67.954-27.48 155.826 9.509 165.416 107.42-.4 66.526 18.309 179.679 77.853 184.514-4.745 13.355-28.548 22.056-55.878 24.423zm-95.503-53.181c4.784-3.696 8.271-7.062 12.196-11.727 35.161-41.464 40.325-82.009 29.847-134.29-26.001-12.057-43.012-38.547-51.723-78.363-10.418 75.796-103.484 72.54-126.888 86.324 0 46.598-2.807 94.495 31.525 131.524 28.198 29.656 73.678 30.605 105.043 6.532zm.21 14.304c-30.706 18.789-67.875 19.528-97.112 1.259a44.623 44.623 0 01-2.757 6.323c-7.981 18.18-26.86 28.388-48.257 32.464-9.928 2.277-20.287 3.076-30.226 2.307 89.83 80.69 171.819 84.246 260.849-.08-20.177-1.169-43.451-5.114-60.272-14.674-8.86-4.744-15.673-10.967-19.139-18.829a36.171 36.171 0 01-3.086-8.77z"/></svg>